<svg width="40" height="33" viewBox="0 0 40 33" fill="none" xmlns="http://www.w3.org/2000/svg">
<path d="M18.4615 19.5V28.5C18.4615 29.75 18.0128 30.8125 17.1154 31.6875C16.2179 32.5625 15.1282 33 13.8462 33H4.61538C3.33333 33 2.24359 32.5625 1.34615 31.6875C0.448718 30.8125 0 29.75 0 28.5V12C0 10.375 0.324519 8.82422 0.973558 7.34766C1.6226 5.87109 2.5 4.59375 3.60577 3.51562C4.71154 2.4375 6.02163 1.58203 7.53606 0.949219C9.05048 0.316406 10.641 0 12.3077 0H13.8462C14.2628 0 14.6234 0.148438 14.9279 0.445312C15.2324 0.742188 15.3846 1.09375 15.3846 1.5V4.5C15.3846 4.90625 15.2324 5.25781 14.9279 5.55469C14.6234 5.85156 14.2628 6 13.8462 6H12.3077C10.609 6 9.15865 6.58594 7.95673 7.75781C6.75481 8.92969 6.15385 10.3438 6.15385 12V12.75C6.15385 13.375 6.37821 13.9062 6.82692 14.3438C7.27564 14.7812 7.82051 15 8.46154 15H13.8462C15.1282 15 16.2179 15.4375 17.1154 16.3125C18.0128 17.1875 18.4615 18.25 18.4615 19.5ZM40 19.5V28.5C40 29.75 39.5513 30.8125 38.6538 31.6875C37.7564 32.5625 36.6667 33 35.3846 33H26.1538C24.8718 33 23.7821 32.5625 22.8846 31.6875C21.9872 30.8125 21.5385 29.75 21.5385 28.5V12C21.5385 10.375 21.863 8.82422 22.512 7.34766C23.1611 5.87109 24.0385 4.59375 25.1442 3.51562C26.25 2.4375 27.5601 1.58203 29.0745 0.949219C30.5889 0.316406 32.1795 0 33.8462 0H35.3846C35.8013 0 36.1619 0.148438 36.4663 0.445312C36.7708 0.742188 36.9231 1.09375 36.9231 1.5V4.5C36.9231 4.90625 36.7708 5.25781 36.4663 5.55469C36.1619 5.85156 35.8013 6 35.3846 6H33.8462C32.1474 6 30.6971 6.58594 29.4952 7.75781C28.2933 8.92969 27.6923 10.3438 27.6923 12V12.75C27.6923 13.375 27.9167 13.9062 28.3654 14.3438C28.8141 14.7812 29.359 15 30 15H35.3846C36.6667 15 37.7564 15.4375 38.6538 16.3125C39.5513 17.1875 40 18.25 40 19.5Z" fill="#ECC892"/>
</svg>
